<?xml version="1.0" standalone="no"?>
<!DOCTYPE svg PUBLIC "-//W3C//DTD SVG 20010904//EN"
 "http://www.w3.org/TR/2001/REC-SVG-20010904/DTD/svg10.dtd">
<svg version="1.0" xmlns="http://www.w3.org/2000/svg"
 width="1280.000000pt" height="720.000000pt" viewBox="0 0 1280.000000 720.000000"
 preserveAspectRatio="xMidYMid meet">

<g transform="translate(0.000000,720.000000) scale(0.100000,-0.100000)"
fill="#FFFFFF" stroke="none">
<path d="M6125 5159 c-22 -4 -64 -8 -94 -8 -29 -1 -104 -12 -165 -25 -61 -13
-122 -26 -136 -29 -14 -2 -86 -22 -160 -44 -342 -102 -772 -287 -1090 -471
-91 -52 -167 -97 -169 -98 -11 -9 32 -35 48 -29 27 8 71 -4 71 -20 0 -8 8 -16
18 -19 24 -7 120 0 161 13 24 7 38 7 47 0 9 -7 22 -5 46 7 148 77 693 294 813
324 17 5 89 23 160 42 72 19 164 41 205 47 41 7 97 17 123 22 84 16 284 10
384 -10 162 -34 301 -118 361 -219 25 -44 27 -55 27 -157 0 -81 -5 -124 -19
-165 -23 -68 -134 -266 -193 -342 -45 -59 -291 -323 -499 -535 l-121 -123 -57
41 c-187 134 -477 128 -771 -16 -188 -92 -319 -189 -482 -358 -145 -151 -234
-295 -283 -456 -42 -136 -10 -326 68 -413 41 -45 68 -60 135 -77 42 -10 59 -9
125 9 212 58 498 267 917 670 77 74 179 171 226 215 268 249 733 706 856 841
135 148 272 362 309 484 39 127 49 208 36 300 -25 178 -121 331 -289 458 -56
43 -187 108 -243 120 -143 32 -277 40 -365 21z m-387 -1965 c17 -7 32 -17 32
-23 0 -5 -23 -29 -51 -53 -105 -87 -217 -185 -322 -280 -59 -53 -195 -170
-302 -259 -395 -329 -543 -411 -605 -331 -19 23 -21 37 -18 92 5 79 43 164
118 264 221 291 566 523 880 589 124 27 204 27 268 1z"/>
<path d="M8098 4917 c-92 -139 -269 -321 -788 -817 -1370 -1308 -1892 -1817
-1922 -1874 -11 -22 -22 -65 -25 -95 -5 -54 -4 -57 25 -73 66 -39 128 -12 197
83 41 58 404 410 695 674 196 178 285 263 695 660 171 165 348 336 395 380
548 511 884 865 959 1012 33 66 29 75 -24 67 -32 -4 -45 -3 -45 6 0 8 -9 10
-27 6 -15 -4 -29 -3 -33 3 -3 6 -20 13 -36 17 -28 5 -33 1 -66 -49z"/>
<path d="M3710 3445 c-116 -33 -272 -114 -485 -253 -174 -113 -397 -281 -392
-295 2 -7 18 -13 37 -15 18 -2 43 -10 54 -18 16 -10 31 -11 56 -5 19 5 64 15
99 22 47 10 87 28 143 65 141 93 171 81 74 -30 -244 -280 -428 -611 -430 -774
-1 -56 2 -66 24 -84 90 -73 487 111 911 423 76 56 110 62 136 23 16 -24 16
-32 -1 -137 -10 -62 -16 -132 -15 -157 4 -43 6 -45 36 -48 40 -4 127 40 196
99 52 45 58 59 24 59 -13 0 -33 9 -45 20 -53 50 -17 151 149 413 151 238 159
250 165 286 9 44 -13 61 -78 61 -103 0 -186 -47 -458 -258 -74 -58 -202 -158
-285 -222 -313 -244 -492 -347 -511 -296 -12 31 41 103 301 416 343 412 434
544 451 648 5 34 3 42 -17 56 -27 19 -76 19 -139 1z"/>
<path d="M7465 3454 c-149 -16 -324 -55 -402 -90 -87 -38 -117 -111 -67 -161
24 -24 31 -25 87 -20 34 3 103 20 152 37 221 76 470 89 585 30 76 -39 122
-119 86 -149 -8 -6 -72 -20 -142 -31 -425 -64 -572 -96 -778 -172 -125 -45
-333 -149 -446 -223 -137 -89 -267 -239 -313 -359 -23 -63 -20 -144 9 -183 83
-110 371 -124 684 -31 246 72 474 174 650 290 117 77 334 260 395 334 27 33
66 80 86 104 l35 44 215 -12 c325 -19 866 -71 1069 -103 120 -19 354 -71 450
-101 62 -19 96 -25 98 -18 2 6 13 19 23 29 19 17 18 18 -28 43 -111 59 -454
163 -718 217 -288 59 -608 109 -900 142 -142 16 -151 19 -159 64 -29 152 -152
261 -341 300 -81 17 -257 27 -330 19z m282 -640 c20 -53 -161 -190 -459 -349
-289 -153 -599 -246 -773 -232 -100 9 -108 13 -101 51 19 96 128 189 351 300
154 77 282 125 457 173 237 64 511 94 525 57z"/>
<path d="M8576 2329 c-93 -10 -163 -28 -176 -44 -6 -7 -32 -16 -58 -20 -49 -7
-103 -38 -88 -52 14 -14 266 -7 337 10 73 18 173 59 183 75 17 27 -89 44 -198
31z"/>
</g>
</svg>
